HIERARCHY
ROOT Hips
{
	OFFSET 0.00000 0.00000 0.00000
	CHANNELS 6 Xposition Yposition Zposition Zrotation Yrotation Xrotation 
	JOINT LHipJoint
	{
		OFFSET 0 0 0
		CHANNELS 3 Zrotation Yrotation Xrotation
		JOINT LeftUpLeg
		{
			OFFSET 1.92384 -1.64427 0.83032
			CHANNELS 3 Zrotation Yrotation Xrotation
			JOINT LeftLeg
			{
				OFFSET 2.52872 -6.94761 0.00000
				CHANNELS 3 Zrotation Yrotation Xrotation
				JOINT LeftFoot
				{
					OFFSET 2.51827 -6.91890 0.00000
					CHANNELS 3 Zrotation Yrotation Xrotation
					JOINT LeftToeBase
					{
						OFFSET 0.22757 -0.62524 2.06528
						CHANNELS 3 Zrotation Yrotation Xrotation
						End Site
						{
							OFFSET 0.00000 -0.00000 1.08218
						}
					}
				}
			}
		}
	}
	JOINT RHipJoint
	{
		OFFSET 0 0 0
		CHANNELS 3 Zrotation Yrotation Xrotation
		JOINT RightUpLeg
		{
			OFFSET -2.09517 -1.64427 0.83032
			CHANNELS 3 Zrotation Yrotation Xrotation
			JOINT RightLeg
			{
				OFFSET -2.55173 -7.01082 0.00000
				CHANNELS 3 Zrotation Yrotation Xrotation
				JOINT RightFoot
				{
					OFFSET -2.50265 -6.87598 0.00000
					CHANNELS 3 Zrotation Yrotation Xrotation
					JOINT RightToeBase
					{
						OFFSET -0.22612 -0.62126 1.98677
						CHANNELS 3 Zrotation Yrotation Xrotation
						End Site
						{
							OFFSET -0.00000 -0.00000 1.04433
						}
					}
				}
			}
		}
	}
	JOINT LowerBack
	{
		OFFSET 0 0 0
		CHANNELS 3 Zrotation Yrotation Xrotation
		JOINT Spine
		{
			OFFSET 0.02839 1.68926 0.31690
			CHANNELS 3 Zrotation Yrotation Xrotation
			JOINT Spine1
			{
				OFFSET -0.01522 1.70183 0.21192
				CHANNELS 3 Zrotation Yrotation Xrotation
				JOINT Neck
				{
					OFFSET 0 0 0
					CHANNELS 3 Zrotation Yrotation Xrotation
					JOINT Neck1
					{
						OFFSET -0.04523 1.88988 0.10630
						CHANNELS 3 Zrotation Yrotation Xrotation
						JOINT Head
						{
							OFFSET 0.05172 1.78070 -0.56858
							CHANNELS 3 Zrotation Yrotation Xrotation
							End Site
							{
								OFFSET 0.01532 1.90392 -0.20434
							}
						}
					}
				}
				JOINT LeftShoulder
				{
					OFFSET 0 0 0
					CHANNELS 3 Zrotation Yrotation Xrotation
					JOINT LeftArm
					{
						OFFSET 3.25522 0.75486 0.22086
						CHANNELS 3 Zrotation Yrotation Xrotation
						JOINT LeftForeArm
						{
							OFFSET 4.85645 -0.00000 0.00000
							CHANNELS 3 Zrotation Yrotation Xrotation
							JOINT LeftHand
							{
								OFFSET 2.79874 -0.00000 0.00000
								CHANNELS 3 Zrotation Yrotation Xrotation
								JOINT LeftFingerBase
								{
									OFFSET 0 0 0
									CHANNELS 3 Zrotation Yrotation Xrotation
									JOINT LeftHandIndex1
									{
										OFFSET 0.57340 -0.00000 0.00000
										CHANNELS 3 Zrotation Yrotation Xrotation
										End Site
										{
											OFFSET 0.46229 -0.00000 0.00000
										}
									}
								}
								JOINT LThumb
								{
									OFFSET 0 0 0
									CHANNELS 3 Zrotation Yrotation Xrotation
									End Site
									{
										OFFSET 0.46935 -0.00000 0.46935
									}
								}
							}
						}
					}
				}
				JOINT RightShoulder
				{
					OFFSET 0 0 0
					CHANNELS 3 Zrotation Yrotation Xrotation
					JOINT RightArm
					{
						OFFSET -3.29079 0.52751 0.36356
						CHANNELS 3 Zrotation Yrotation Xrotation
						JOINT RightForeArm
						{
							OFFSET -4.67018 -0.00000 0.00000
							CHANNELS 3 Zrotation Yrotation Xrotation
							JOINT RightHand
							{
								OFFSET -2.65534 -0.00000 0.00000
								CHANNELS 3 Zrotation Yrotation Xrotation
								JOINT RightFingerBase
								{
									OFFSET 0 0 0
									CHANNELS 3 Zrotation Yrotation Xrotation
									JOINT RightHandIndex1
									{
										OFFSET -0.59407 -0.00000 0.00000
										CHANNELS 3 Zrotation Yrotation Xrotation
										End Site
										{
											OFFSET -0.47895 -0.00000 0.00000
										}
									}
								}
								JOINT RThumb
								{
									OFFSET 0 0 0
									CHANNELS 3 Zrotation Yrotation Xrotation
									End Site
									{
										OFFSET -0.48627 -0.00000 0.48627
									}
								}
							}
						}
					}
				}
			}
		}
	}
}
MOTION
Frames: 9
Frame Time: 0.0263158
0.00 0.00 0.00 0 0 0 0 0 0 -21 0 0 0 0 0 0 0 0 0 0 0 0 0 0 21 0 0 0 0 0 0 0 0 0 0 0 0 0 0 0 0 0 0 0 0 0 0 -16 0 0 21 0 0 11 0 0 0 -8 0 0 0 0 0 0 0 0 0 0 0 0 0 0 0 0 0 0 0 0 8 0 0 0 0 0 0 0 0 0 0 0 0 0 0 0 0 0
0.00 0.00 0.00 177.3010 9.2122 -143.2140 0.0000 0.0000 0.0000 -17.1053 -25.0575 -50.6128 4.0327 12.2038 36.4569 0.4548 11.0148 -21.0933 0.2133 -2.9733 -8.2046 0.0000 0.0000 0.0000 5.2948 21.9632 -67.4515 -8.9801 -16.7949 56.0212 -0.3181 -7.4779 -15.9228 -0.2060 2.9221 -8.0619 9.6881 7.8985 -7.4429 -20.2677 20.1099 -27.2786 -31.9186 9.9136 -16.3132 9.3847 -1.6090 -9.5369 11.1439 -22.0898 46.2162 -1.6966 -8.7510 21.9807 0.0000 -0.0000 0.0000 -21.9601 8.6352 112.1859 126.1131 -54.4477 -90.6917 -0.0000 0.0000 -51.5874 9.4582 41.0605 6.2449 -7.1250 0.0000 -0.0000 -37.2651 67.9432 -21.6864 0.0000 -0.0000 0.0000 123.1854 -45.9035 19.8706 -110.6002 58.3342 -77.7405 0.0000 -0.0000 -29.5122 -8.0304 -22.2772 3.0614 7.1250 -0.0000 -0.0000 20.9519 -51.2347 -3.3422
0.00 0.00 0.00 177.3600 8.9868 -143.2780 0.0000 0.0000 0.0000 -18.7966 -23.7618 -45.9998 3.3886 11.2990 33.2951 0.5563 10.7657 -21.8279 0.2573 -3.2633 -9.0126 0.0000 0.0000 0.0000 0.7639 24.9907 -67.4166 -4.8577 -13.2217 40.2043 -0.1085 -10.3349 -16.3105 -0.1027 2.0665 -5.6895 10.3189 8.0695 -7.2086 -20.1501 20.2970 -27.2260 -32.1016 9.9078 -16.1400 9.7509 -1.3356 -9.3282 11.2424 -22.1497 46.5155 -1.7350 -8.7347 22.2011 0.0000 -0.0000 0.0000 -21.7929 8.4467 112.5063 126.1766 -54.4258 -90.7434 -0.0000 0.0000 -51.3655 9.8017 40.3892 6.3874 -7.1250 0.0000 -0.0000 -35.8160 67.5318 -20.4332 0.0000 -0.0000 0.0000 123.4002 -45.9027 19.2980 -111.5610 58.1685 -78.5575 0.0000 -0.0000 -29.0852 -8.4263 -21.7552 3.1427 7.1250 -0.0000 -0.0000 20.3209 -50.8094 -3.0159
0.00 0.00 0.00 177.1470 8.5536 -143.4960 0.0000 0.0000 0.0000 -20.6734 -22.2395 -40.3366 2.4998 9.8375 28.4521 0.5463 10.5434 -21.5098 0.3516 -3.8100 -10.5427 0.0000 0.0000 0.0000 -11.1360 31.3287 -65.8207 -1.8054 -8.4484 24.0844 0.6107 -18.3255 -19.8108 -0.0453 1.3736 -3.7773 10.6679 8.1225 -7.2112 -20.0591 20.3412 -27.1408 -32.0820 9.9202 -15.9279 9.2681 -1.2072 -9.1490 11.8117 -22.5184 46.7077 -1.4846 -8.9584 22.6573 -0.0000 0.0000 0.0000 -21.5631 7.8958 112.9837 125.9798 -54.4936 -90.5833 -0.0000 0.0000 -51.8206 9.9135 41.6022 6.6190 -7.1250 0.0000 -0.0000 -37.7155 68.4960 -22.4315 -0.0000 0.0000 0.0000 123.3687 -45.8285 19.2170 -112.1452 58.0634 -79.0536 0.0000 -0.0000 -28.7653 -8.5708 -21.5525 3.1690 7.1250 -0.0000 -0.0000 20.0873 -50.6419 -2.8937
0.00 0.00 0.00 182.1180 6.2660 -146.1880 0.0000 0.0000 0.0000 -16.7709 -14.6325 -34.9446 6.2355 14.6528 45.9198 0.4875 7.0431 -17.6153 2.1351 -9.1421 -26.2407 0.0000 0.0000 0.0000 7.9757 29.7096 -56.6374 -2.5569 -9.9406 28.7845 0.2083 -8.6053 -6.3637 -0.0120 -0.7084 1.9467 16.2526 9.0331 -4.1643 -18.2277 21.8319 -27.2535 -33.6402 9.2689 -16.2855 12.1918 0.2230 -8.6515 9.6591 -18.6380 47.0463 -1.9519 -7.0897 21.4747 0.0000 -0.0000 0.0000 -21.9780 12.0966 111.4196 124.6566 -54.9357 -89.5031 -0.0000 0.0000 -50.4755 11.1862 39.2494 7.1317 -7.1250 0.0000 -0.0000 -32.6101 67.0444 -18.0878 0.0000 -0.0000 0.0000 122.3604 -46.5702 21.0838 -111.9288 58.1027 -78.8699 0.0000 -0.0000 -30.3046 -8.5544 -22.5428 3.3005 7.1250 -0.0000 -0.0000 20.5912 -51.5686 -3.4538
0.00 0.00 0.00 182.4960 4.2571 -146.8940 0.0000 0.0000 0.0000 -14.4858 -12.8711 -42.5508 9.7553 17.2700 58.6675 -0.0526 4.1507 -2.4064 1.1341 -6.7636 -19.0169 0.0000 0.0000 0.0000 10.7306 29.2695 -52.9786 -2.6934 -10.1814 29.5663 0.1101 -8.6850 -9.9818 -0.0122 -0.7138 1.9616 17.1260 9.0444 -3.9499 -18.1488 21.4700 -26.3807 -33.7527 9.1514 -15.2057 11.9422 0.1883 -9.4517 9.7505 -18.3713 46.8005 -1.8175 -6.8591 21.5261 -0.0000 0.0000 0.0000 -22.4618 11.5813 110.4471 124.7565 -54.9032 -89.5848 -0.0000 0.0000 -49.0940 10.4615 39.1627 6.6511 -7.1250 0.0000 -0.0000 -33.2543 66.7587 -18.2649 -0.0000 0.0000 0.0000 122.1709 -45.9504 20.7408 -112.7970 57.9422 -79.6064 0.0000 -0.0000 -29.7700 -8.6189 -22.6066 3.3346 7.1250 -0.0000 -0.0000 20.5624 -51.6388 -3.4851
0.00 0.00 0.00 182.1660 -0.3992 -146.6100 0.0000 0.0000 0.0000 4.1703 -27.8273 -60.3791 1.1625 6.8446 19.2559 -2.2785 25.6917 -12.9830 0.0707 -1.7158 -4.7209 0.0000 0.0000 0.0000 22.2582 21.0334 -33.8614 -2.1272 -9.1262 26.1908 -1.0443 -5.2652 -21.8860 -0.0588 1.5645 -4.3035 15.3500 8.6518 -7.5694 -18.6380 20.4135 -25.7338 -31.5375 9.7719 -13.0259 12.7830 1.2638 -9.4740 8.7521 -15.4618 47.1149 -1.7950 -5.4373 21.3485 0.0000 -0.0000 0.0000 -25.1878 14.5269 104.7607 126.0272 -54.4773 -90.6219 -0.0000 0.0000 -46.6322 17.1843 29.4655 8.6495 -7.1250 0.0000 -0.0000 -15.9573 59.8656 -5.8799 0.0000 -0.0000 0.0000 115.3432 -45.7593 28.8442 -110.0053 58.4324 -77.2339 0.0000 -0.0000 -30.5391 -8.7439 -23.9891 3.5782 7.1250 -0.0000 -0.0000 21.1744 -52.9516 -4.2962
0.00 0.00 0.00 178.6190 -2.1105 -146.2410 0.0000 0.0000 0.0000 -9.1213 -28.0832 -56.3155 2.2134 9.2971 26.7293 -0.6532 14.2769 -3.2130 0.1015 -2.0544 -5.6561 0.0000 0.0000 0.0000 20.0075 13.0177 -29.6073 -4.5228 -12.8254 38.7182 -0.6841 -3.5889 -17.3347 -1.1194 6.7209 -18.8911 10.1818 17.5816 -11.2449 -21.9329 16.5918 -23.9607 -30.1726 2.6656 -9.6104 13.0524 2.3151 -10.4638 7.9945 -13.4214 47.7545 -2.0401 -4.4782 22.0397 0.0000 -0.0000 0.0000 -26.3854 15.6806 103.7562 125.7868 -54.5596 -90.4261 -0.0000 0.0000 -47.6801 11.2129 37.4738 6.8772 -7.1250 0.0000 -0.0000 -30.1351 65.5875 -15.6147 0.0000 -0.0000 0.0000 117.9592 -46.6261 26.5168 -107.8150 58.7662 -75.3643 0.0000 -0.0000 -30.1409 -8.9597 -25.3593 3.8631 7.1250 -0.0000 -0.0000 21.7489 -54.2634 -5.1359
0.00 0.00 0.00 177.4830 -1.7350 -145.8440 0.0000 0.0000 0.0000 -12.3977 -28.5171 -53.6216 2.3651 9.5884 27.6539 -0.6324 13.9822 -6.5935 0.1143 -2.1802 -6.0039 0.0000 0.0000 0.0000 17.4125 9.5123 -38.2200 -7.9293 -16.0670 52.3076 0.0773 -4.9917 -2.6957 -0.1875 2.7891 -7.6920 8.5875 17.4698 -11.4239 -21.9079 16.2374 -23.9072 -29.2539 2.5213 -10.1547 13.2324 2.6984 -11.3933 7.4515 -12.6654 48.0593 -2.2327 -4.0666 22.5263 -0.0000 0.0000 0.0000 -26.6463 15.0725 104.0470 125.7496 -54.5723 -90.3958 -0.0000 0.0000 -48.2210 14.0707 34.7478 8.1300 -7.1250 0.0000 -0.0000 -23.8586 64.0111 -11.3052 -0.0000 0.0000 0.0000 117.4892 -46.2768 26.5377 -108.6176 58.6489 -76.0501 0.0000 -0.0000 -30.1280 -8.5775 -25.1972 3.6743 7.1250 -0.0000 -0.0000 22.0242 -54.0429 -5.0846
